<?xml version="1.0" standalone="no"?>
<!DOCTYPE svg PUBLIC "-//W3C//DTD SVG 20010904//EN" "http://www.w3.org/TR/2001/REC-SVG-20010904/DTD/svg10.dtd">
<svg version="1.0" xmlns="http://www.w3.org/2000/svg" width="1000.000000pt" height="1000.000000pt"
    viewBox="0 0 1000.000000 1000.000000" preserveAspectRatio="xMidYMid meet">

    <g transform="translate(0.000000,1000.000000) scale(0.100000,-0.100000)" fill="#FFFFFF" stroke="none">
        <path d="M4905 8324 c-11 -3 -978 -388 -2148 -856 -2295 -917 -2183 -869
-2262 -976 -98 -133 -99 -351 -1 -483 76 -103 75 -102 855 -415 l726 -290 6
-1060 c6 -1151 2 -1073 61 -1254 194 -598 954 -1077 1982 -1250 330 -56 446
-64 866 -65 469 0 677 19 1055 96 671 137 1269 441 1566 795 151 180 225 324
286 554 15 59 17 164 22 1124 l6 1060 395 158 c217 87 403 161 413 164 16 5
17 -45 17 -964 0 -938 1 -972 20 -1033 26 -84 78 -159 144 -209 197 -149 473
-99 605 108 64 102 61 22 61 1472 0 1450 3 1370 -61 1472 -37 57 -104 120
-156 146 -21 10 -987 399 -2148 863 l-2110 843 -90 2 c-49 2 -99 1 -110 -2z
m1618 -1465 c829 -332 1507 -606 1507 -609 0 -3 -682 -279 -1515 -612 l-1515
-606 -1515 606 c-833 333 -1515 609 -1515 612 0 8 3023 1219 3035 1215 6 -1
688 -274 1518 -606z m-2608 -2291 l980 -393 105 0 105 0 980 393 c539 215 984
392 988 392 4 0 7 -380 7 -843 l0 -844 -32 -63 c-74 -148 -303 -321 -583 -440
-974 -416 -2489 -338 -3243 167 -117 78 -230 193 -270 273 l-32 63 0 844 c0
463 3 843 7 843 4 0 449 -177 988 -392z" />
    </g>
</svg>